<?xml version="1.0" standalone="no"?>
<!DOCTYPE svg PUBLIC "-//W3C//DTD SVG 20010904//EN"
 "http://www.w3.org/TR/2001/REC-SVG-20010904/DTD/svg10.dtd">
<svg version="1.0" xmlns="http://www.w3.org/2000/svg"
 width="392.000000pt" height="392.000000pt" viewBox="0 0 392.000000 392.000000"
 preserveAspectRatio="xMidYMid meet">
<metadata>
Created by potrace 1.14, written by Peter Selinger 2001-2017
</metadata>
<g transform="translate(0.000000,392.000000) scale(0.100000,-0.100000)"
fill="#000000" stroke="none">
<path d="M2208 3696 c-1 -2 -39 -6 -83 -10 -104 -8 -131 -13 -245 -41 -309
-79 -542 -226 -777 -492 -94 -108 -208 -318 -262 -483 -53 -167 -65 -247 -66
-440 0 -195 5 -242 40 -381 50 -200 130 -364 263 -538 l64 -84 -58 -58 c-46
-47 -63 -58 -79 -52 -31 11 -102 4 -143 -13 -44 -18 -690 -661 -717 -713 -37
-73 -15 -190 47 -248 58 -55 158 -68 231 -32 48 25 687 662 714 713 12 20 17
55 18 103 l0 73 54 54 54 55 53 -44 c266 -216 610 -336 943 -329 251 6 433 50
646 155 561 278 880 865 812 1491 -35 321 -182 631 -410 862 -127 128 -236
209 -386 285 -194 98 -375 148 -571 157 -63 3 -120 7 -127 9 -6 2 -13 2 -15 1z
m247 -272 c590 -108 1009 -599 1018 -1195 2 -154 -11 -242 -59 -394 -158 -499
-632 -846 -1154 -845 -117 0 -160 4 -270 26 -401 82 -736 368 -886 755 -61
159 -77 252 -77 449 0 162 2 183 30 290 59 223 169 417 328 576 177 176 377
282 633 334 110 22 326 24 437 4z"/>
<path d="M2160 3243 c253 -122 357 -182 494 -291 104 -82 228 -205 311 -308
127 -158 222 -322 319 -554 3 -8 4 39 2 105 -12 314 -180 627 -444 828 -197
150 -420 232 -639 235 l-78 1 35 -16z"/>
</g>
</svg>
